<?xml version="1.0" encoding="UTF-8" standalone="no"?>
<svg width="53px" height="30px" viewBox="0 0 53 30" version="1.1" xmlns="http://www.w3.org/2000/svg" xmlns:xlink="http://www.w3.org/1999/xlink">
    <!-- Generator: Sketch 3.7.2 (28276) - http://www.bohemiancoding.com/sketch -->
    <title>logo_wr_footer</title>
    <desc>Created with Sketch.</desc>
    <defs></defs>
    <g id="Symbols" stroke="none" stroke-width="1" fill="none" fill-rule="evenodd">
        <g id="Footer" transform="translate(-144.000000, -128.000000)" fill="#00B4CD">
            <g id="Group-2">
                <g transform="translate(144.000000, 118.000000)">
                    <g id="Group-5" transform="translate(0.000000, 4.000000)">
                        <g id="logo_wr_footer" transform="translate(0.000000, 6.000000)">
                            <g id="Design">
                                <polygon id="Shape" points="11.4070455 29.712 11.4070455 23.808 9.63636364 23.808 9.63636364 22.524 14.575 22.524 14.575 23.808 12.7922727 23.808 12.7922727 29.712 11.4070455 29.712"></polygon>
                                <path d="M17.3093182,27.372 L17.3093182,22.572 L18.7065909,22.572 L18.7065909,27.372 C18.6901557,27.7125854 18.8116685,28.0454845 19.0438636,28.296 C19.3103748,28.5435084 19.6681416,28.6695582 20.0315909,28.644 C20.3929293,28.6699334 20.7493644,28.5486831 21.0193182,28.308 C21.2558185,28.0649909 21.3783051,27.7337818 21.3565909,27.396 L21.3565909,22.596 L22.7538636,22.596 L22.7538636,27.396 C22.7971631,28.0926392 22.5227878,28.7715802 22.0070455,29.244 C20.8303696,30.1004366 19.2328123,30.1004366 18.0561364,29.244 C17.5350576,28.7651551 17.2603442,28.0765493 17.3093182,27.372 L17.3093182,27.372 Z" id="Shape"></path>
                                <path d="M25.9820455,29.712 L25.9820455,22.512 L28.3911364,22.512 C28.8030034,22.5043794 29.2123335,22.5777808 29.5956818,22.728 C29.9631115,22.8743707 30.2985501,23.0903604 30.5834091,23.364 C30.903794,23.6808938 31.1469253,24.0667937 31.2940909,24.492 C31.4781127,25.0079318 31.5678639,25.5525348 31.5590909,26.1 C31.5722976,26.6830456 31.4826014,27.2638707 31.2940909,27.816 C31.1515056,28.2491187 30.8982921,28.6378441 30.5593182,28.944 C30.2656172,29.1972504 29.9263639,29.3927047 29.5595455,29.52 C29.1711459,29.6474659 28.7638462,29.7083303 28.355,29.7 L25.9459091,29.7 L25.9820455,29.712 Z M27.3793182,28.428 L28.3429545,28.428 C28.562794,28.4330221 28.7821212,28.4046981 28.9934091,28.344 C29.1931803,28.2789965 29.3747572,28.1679947 29.5234091,28.02 C29.7123513,27.822017 29.8453377,27.5777486 29.9088636,27.312 C30.0066451,26.9196934 30.0512084,26.5161008 30.0413636,26.112 C30.0934516,25.4947967 29.9365468,24.8779951 29.5956818,24.36 C29.307549,23.9925777 28.8586775,23.786876 28.3911364,23.808 L27.3672727,23.808 L27.3672727,28.428 L27.3793182,28.428 Z" id="Shape"></path>
                                <polygon id="Shape" points="34.2211364 29.712 34.2211364 22.512 35.6184091 22.512 35.6184091 29.712"></polygon>
                                <path d="M5.46863636,25.488 C4.94190112,25.3270758 4.42677126,25.1306218 3.92681818,24.9 C3.73283215,24.8134071 3.60954619,24.6197282 3.61363636,24.408 C3.60979349,24.1960481 3.70837875,23.9951573 3.87863636,23.868 C4.11423311,23.7154921 4.39340041,23.6438567 4.67363636,23.664 C5.24675736,23.6299054 5.77103086,23.9846719 5.95045455,24.528 L7.31159091,24.168 C7.19185944,23.6446917 6.87769717,23.185945 6.43227273,22.884 C5.90939172,22.546821 5.29627263,22.3752935 4.67363636,22.392 C4.02388405,22.354918 3.38496341,22.569955 2.89090909,22.992 C2.47421945,23.3549366 2.23677076,23.8806092 2.24045455,24.432 C2.23595946,24.8773653 2.40425367,25.3072605 2.71022727,25.632 C3.16113564,26.0429192 3.70752557,26.3357018 4.30022727,26.484 C4.8325791,26.6217927 5.34623711,26.8232571 5.83,27.084 C6.050301,27.230319 6.17812201,27.4804485 6.16727273,27.744 C6.17779662,28.0008705 6.04285212,28.2419268 5.81795455,28.368 C5.53019595,28.5234597 5.20544935,28.5981185 4.87840909,28.584 C4.50518608,28.621867 4.13556177,28.4843355 3.87863636,28.212 C3.69249081,27.9005585 3.60047906,27.5422335 3.61363636,27.18 L2.32477273,27.528 C2.32353311,28.1528314 2.55534726,28.7558398 2.97522727,29.22 C3.5231795,29.6927295 4.24094001,29.9224128 4.96272727,29.856 C5.6604357,29.892067 6.34688582,29.6698126 6.89,29.232 C7.36042884,28.8411631 7.62646882,28.2580838 7.61272727,27.648 C7.60995479,27.1829612 7.42898602,26.736539 7.10681818,26.4 C6.63897351,25.9737819 6.07819222,25.6615866 5.46863636,25.488 L5.46863636,25.488 Z" id="Shape"></path>
                                <path d="M50.0488636,25.488 C49.5221284,25.3270758 49.0069985,25.1306218 48.5070455,24.9 C48.3083409,24.8170896 48.1797817,24.6226068 48.1818182,24.408 C48.1779753,24.1960481 48.2765606,23.9951573 48.4468182,23.868 C48.6824149,23.7154921 48.9615822,23.6438567 49.2418182,23.664 C49.8149392,23.6299054 50.3392127,23.9846719 50.5186364,24.528 L51.8797727,24.168 C51.7600413,23.6446917 51.445879,23.185945 51.0004545,22.884 C50.4775735,22.546821 49.8644544,22.3752935 49.2418182,22.392 C48.5920659,22.354918 47.9531452,22.569955 47.4590909,22.992 C47.0424013,23.3549366 46.8049526,23.8806092 46.8086364,24.432 C46.8041413,24.8773653 46.9724355,25.3072605 47.2784091,25.632 C47.7293175,26.0429192 48.2757074,26.3357018 48.8684091,26.484 C49.4007609,26.6217927 49.9144189,26.8232571 50.3981818,27.084 C50.6184828,27.230319 50.7463038,27.4804485 50.7354545,27.744 C50.7459784,28.0008705 50.6110339,28.2419268 50.3861364,28.368 C50.0983778,28.5234597 49.7736312,28.5981185 49.4465909,28.584 C49.0733679,28.621867 48.7037436,28.4843355 48.4468182,28.212 C48.2606726,27.9005585 48.1686609,27.5422335 48.1818182,27.18 L46.8929545,27.528 C46.8917149,28.1528314 47.1235291,28.7558398 47.5434091,29.22 C48.0913613,29.6927295 48.8091218,29.9224128 49.5309091,29.856 C50.2286175,29.892067 50.9150676,29.6698126 51.4581818,29.232 C51.9286107,28.8411631 52.1946506,28.2580838 52.1809091,27.648 C52.1813947,27.1846059 52.0048201,26.7383996 51.6870455,26.4 C51.2192008,25.9737819 50.6584195,25.6615866 50.0488636,25.488 L50.0488636,25.488 Z" id="Shape"></path>
                                <path d="M43.3636364,28.92 C42.864732,29.5166674 42.1255224,29.8616775 41.3460227,29.8616775 C40.5665231,29.8616775 39.8273135,29.5166674 39.3284091,28.92 C38.7496194,28.0615884 38.4741515,27.0356485 38.5454545,26.004 C38.4776794,25.0399454 38.7457009,24.0820997 39.3043182,23.292 C39.8078102,22.702953 40.5453276,22.3635782 41.3219318,22.3635782 C42.098536,22.3635782 42.8360535,22.702953 43.3395455,23.292 C43.8981628,24.0820997 44.1661842,25.0399454 44.0984091,26.004 C44.1829837,27.0301276 43.9246552,28.0553234 43.3636364,28.92 L43.3636364,28.92 Z M40.2920455,28.008 C40.505926,28.3839725 40.9062107,28.6163379 41.34,28.6163379 C41.7737893,28.6163379 42.174074,28.3839725 42.3879545,28.008 C42.6596205,27.3764797 42.7752798,26.6892576 42.7252273,26.004 C42.7666651,25.3840221 42.6463234,24.763914 42.3759091,24.204 C42.1589251,23.8396962 41.7652137,23.6163528 41.34,23.6163528 C40.9147863,23.6163528 40.5210749,23.8396962 40.3040909,24.204 C40.0336766,24.763914 39.9133349,25.3840221 39.9547727,26.004 C39.9118183,26.6912241 40.0357735,27.3786377 40.3161364,28.008 L40.2920455,28.008 Z" id="Shape"></path>
                                <polygon id="Shape" points="17.8875 0.132 15.7193182 11.568 15.6470455 11.568 11.7684091 0.132 10.0459091 0.132 6.16727273 11.568 6.095 11.568 3.92681818 0.132 0.686590909 0.132 3.975 16.956 7.34772727 16.956 10.8168182 6.624 10.9975 6.624 14.4665909 16.956 17.8393182 16.956 21.1277273 0.132"></polygon>
                                <polygon id="Shape" points="30.6195455 3.06 28.09 3.06 28.09 8.076 23.5488636 8.076 23.5488636 10.476 28.09 10.476 28.09 15.324 30.6195455 15.324 30.6195455 10.476 35.1606818 10.476 35.1606818 8.076 30.6195455 8.076"></polygon>
                                <path d="M48.5311364,10.392 C50.7368272,9.79519682 52.2359094,7.75916034 52.1447727,5.484 C52.2113651,4.01273723 51.6255591,2.58665804 50.5427273,1.584 C49.3788424,0.583184344 47.8748201,0.0637002504 46.3388636,0.132 L39.4368182,0.132 L39.4368182,16.932 L42.6890909,16.932 L42.6890909,10.704 L45.1945455,10.704 L48.5913636,16.956 L52.1086364,16.956 L48.5311364,10.392 Z M46.0256818,7.896 L42.6890909,7.896 L42.6890909,3.096 L46.0136364,3.096 C47.8606061,3.096 48.7840909,3.896 48.7840909,5.496 C48.7840909,7.096 47.8646212,7.896 46.0256818,7.896 L46.0256818,7.896 Z" id="Shape"></path>
                            </g>
                        </g>
                    </g>
                </g>
            </g>
        </g>
    </g>
</svg>